<?xml version="1.0" encoding="utf-8"?>
<!-- Generator: Adobe Illustrator 19.2.1, SVG Export Plug-In . SVG Version: 6.00 Build 0)  -->
<svg version="1.1" id="Layer_1" xmlns="http://www.w3.org/2000/svg" xmlns:xlink="http://www.w3.org/1999/xlink" x="0px" y="0px"
	 viewBox="0 0 128 128" style="enable-background:new 0 0 128 128;" xml:space="preserve">
<style type="text/css">
	.st0{fill:#DAB636;}
	.st1{fill:#FFFFFF;}
</style>
<circle class="st0" cx="64" cy="64" r="64"/>
<g>
	<path class="st1" d="M96.3,35.8H31.7c-0.5,0-0.8,0.3-0.8,0.7v8.5c0,0.4,0.3,0.7,0.8,0.7h64.6c0.5,0,0.8-0.3,0.8-0.7v-8.5
		C97.1,36.1,96.8,35.8,96.3,35.8z"/>
	<path class="st1" d="M96.3,59H31.7c-0.5,0-0.8,0.3-0.8,0.7v8.5c0,0.4,0.3,0.7,0.8,0.7h64.6c0.5,0,0.8-0.3,0.8-0.7v-8.5
		C97.1,59.3,96.8,59,96.3,59z"/>
	<path class="st1" d="M96.3,82.2H31.7c-0.5,0-0.8,0.3-0.8,0.7v8.5c0,0.4,0.3,0.7,0.8,0.7h64.6c0.5,0,0.8-0.3,0.8-0.7v-8.5
		C97.1,82.5,96.8,82.2,96.3,82.2z"/>
</g>
</svg>
