<svg id="icon_tpoint.svg" xmlns="http://www.w3.org/2000/svg" width="74" height="50" viewBox="0 0 74 50">
  <defs>
    <style>
      .cls-1 {
        fill: #231916;
        opacity: 0.3;
      }

      .cls-1, .cls-2 {
        fill-rule: evenodd;
      }

      .cls-2 {
        fill: #dab633;
        opacity: 0.5;
      }
    </style>
  </defs>
  <path id="形狀_1_拷貝_2" data-name="形狀 1 拷貝 2" class="cls-1" d="M74.217,23.13a2.634,2.634,0,0,1,0,3.727L51.856,49.217a2.635,2.635,0,0,1-3.726,0L25.77,26.857a2.635,2.635,0,0,1,0-3.727L48.13,0.769a2.635,2.635,0,0,1,3.726,0Z"/>
  <path id="形狀_1_拷貝_2-2" data-name="形狀 1 拷貝 2" class="cls-2" d="M49.217,23.13a2.634,2.634,0,0,1,0,3.727l-22.36,22.36a2.635,2.635,0,0,1-3.726,0L0.769,26.857a2.635,2.635,0,0,1,0-3.727L23.13,0.769a2.635,2.635,0,0,1,3.726,0Z"/>
</svg>
